<svg width="672" height="668" viewBox="0 0 672 668" fill="none" xmlns="http://www.w3.org/2000/svg">
<path d="M666.438 92.0016L477.104 622.668C472.576 635.847 464.03 647.276 452.67 655.347C441.31 663.419 427.707 667.728 413.771 667.668C399.997 667.825 386.512 663.711 375.171 655.891C363.83 648.072 355.189 636.931 350.438 624.002L279.771 440.002L331.104 388.668L414.104 305.668C420.381 299.391 423.907 290.878 423.907 282.002C423.907 273.125 420.381 264.612 414.104 258.335C407.828 252.058 399.315 248.532 390.438 248.532C381.561 248.532 373.048 252.058 366.771 258.335L283.771 341.335L231.104 393.002L47.4378 322.002C33.7222 317.87 21.7021 309.43 13.1579 297.933C4.61377 286.436 0 272.493 0 258.168C0 243.844 4.61377 229.9 13.1579 218.403C21.7021 206.906 33.7222 198.467 47.4378 194.335L579.438 5.00155C591.604 0.00320971 604.976 -1.28474 617.873 1.29979C630.769 3.88433 642.613 10.2258 651.913 19.5262C661.213 28.8266 667.555 40.6703 670.14 53.5666C672.724 66.4629 671.436 79.8356 666.438 92.0016Z" fill="#0626F5"/>
</svg>
